<svg width="1200" height="410" viewBox="0 0 1200 410" fill="none" xmlns="http://www.w3.org/2000/svg" role="img" aria-labelledby="title desc">
  <title id="title">Aayush shipping rhythm</title><desc id="desc">A stylized GitHub activity snapshot with contribution count, weekly pulse bars and recent project mix.</desc><defs><linearGradient id="bg" x1="0" y1="0" x2="1200" y2="410"><stop stop-color="#071019"/><stop offset=".55" stop-color="#0B1720"/><stop offset="1" stop-color="#07151A"/></linearGradient><linearGradient id="pulse" x1="70" y1="0" x2="1130" y2="0"><stop stop-color="#4EA8DE"/><stop offset=".55" stop-color="#F6BD60"/><stop offset="1" stop-color="#84DCC6"/></linearGradient></defs><rect width="1200" height="410" rx="28" fill="url(#bg)"/>
  <g font-family="Inter, ui-sans-serif, system-ui"><text x="54" y="58" fill="#F6BD60" font-family="ui-monospace, monospace" font-size="13" letter-spacing="3">SHIPPING RHYTHM / GITHUB SNAPSHOT</text><text x="1146" y="58" text-anchor="end" fill="#81919D" font-family="ui-monospace, monospace" font-size="12" letter-spacing="2">CAPTURED 2026-09-20</text><text x="54" y="132" fill="#FFF" font-size="58" font-weight="800">192</text><text x="180" y="128" fill="#B4C2CB" font-size="21">contributions in the captured year</text>
    <text x="54" y="188" fill="#81919D" font-family="ui-monospace, monospace" font-size="11" letter-spacing="2">WEEKLY PULSE</text><g fill="#19303A"><rect x="54" y="258" width="20" height="42" rx="5"/><rect x="84" y="270" width="20" height="30" rx="5"/><rect x="114" y="265" width="20" height="35" rx="5"/><rect x="144" y="273" width="20" height="27" rx="5"/><rect x="174" y="260" width="20" height="40" rx="5"/><rect x="204" y="268" width="20" height="32" rx="5"/><rect x="234" y="274" width="20" height="26" rx="5"/><rect x="264" y="269" width="20" height="31" rx="5"/><rect x="294" y="262" width="20" height="38" rx="5"/><rect x="324" y="271" width="20" height="29" rx="5"/><rect x="354" y="268" width="20" height="32" rx="5"/><rect x="384" y="274" width="20" height="26" rx="5"/><rect x="414" y="270" width="20" height="30" rx="5"/><rect x="444" y="267" width="20" height="33" rx="5"/><rect x="474" y="273" width="20" height="27" rx="5"/><rect x="504" y="269" width="20" height="31" rx="5"/><rect x="534" y="260" width="20" height="40" rx="5"/><rect x="564" y="266" width="20" height="34" rx="5"/><rect x="594" y="272" width="20" height="28" rx="5"/><rect x="624" y="270" width="20" height="30" rx="5"/><rect x="654" y="264" width="20" height="36" rx="5"/><rect x="684" y="268" width="20" height="32" rx="5"/><rect x="714" y="272" width="20" height="28" rx="5"/><rect x="744" y="258" width="20" height="42" rx="5"/><rect x="774" y="266" width="20" height="34" rx="5"/><rect x="804" y="250" width="20" height="50" rx="5"/><rect x="834" y="244" width="20" height="56" rx="5"/></g><g fill="url(#pulse)"><rect x="864" y="228" width="20" height="72" rx="5"/><rect x="894" y="250" width="20" height="50" rx="5"/><rect x="924" y="213" width="20" height="87" rx="5"/><rect x="954" y="238" width="20" height="62" rx="5"/><rect x="984" y="191" width="20" height="109" rx="5"/><rect x="1014" y="222" width="20" height="78" rx="5"/><rect x="1044" y="168" width="20" height="132" rx="5"><animate attributeName="height" values="112;140;112" dur="2.4s" repeatCount="indefinite"/><animate attributeName="y" values="188;160;188" dur="2.4s" repeatCount="indefinite"/></rect><rect x="1074" y="198" width="20" height="102" rx="5"/><rect x="1104" y="232" width="20" height="68" rx="5"/></g>
    <text x="54" y="346" fill="#9CADB8" font-size="13">Recent signal:</text><text x="154" y="346" fill="#F6BD60" font-size="13">ScholarSphere</text><text x="258" y="346" fill="#81919D" font-size="13">·</text><text x="278" y="346" fill="#4EA8DE" font-size="13">NodeFlow</text><text x="345" y="346" fill="#81919D" font-size="13">·</text><text x="365" y="346" fill="#F28482" font-size="13">FinSight-AI</text><text x="54" y="378" fill="#657682" font-family="ui-monospace, monospace" font-size="10" letter-spacing="2">STATIC SNAPSHOT · OPEN THE LIVE PROFILE FOR THE AUTHORITATIVE RECORD</text></g><path d="M54 300H1124" stroke="#284653"/><rect x="1" y="1" width="1198" height="408" rx="27" stroke="#284653" stroke-width="2"/>
</svg>
